<svg width="107" height="24" viewBox="0 0 107 24" fill="none" xmlns="http://www.w3.org/2000/svg">
<g clip-path="url(#clip0)">
<path fill-rule="evenodd" clip-rule="evenodd" d="M48.1424 3.5108C48.1522 4.63107 47.2476 5.5472 46.1216 5.55704C44.9957 5.56688 44.075 4.66671 44.065 3.54646C44.0551 2.42619 44.9599 1.51007 46.0858 1.50022C47.2118 1.49038 48.1325 2.39055 48.1424 3.5108ZM33.0303 22.3296V11.7273C33.0303 11.6591 32.9789 11.608 32.9103 11.608H29.364C29.2956 11.608 29.2441 11.5568 29.2441 11.4886V8.14774C29.2441 8.07956 29.2956 8.02842 29.364 8.02842H32.9103C32.9789 8.02842 33.0303 7.97729 33.0303 7.90909V5.8466C33.0303 4.53409 33.4071 3.51137 34.1609 2.76137C34.9148 2.01137 35.9427 1.63637 37.2619 1.63637H40.9452C41.0137 1.63637 41.0652 1.68751 41.0652 1.7557V4.87501C41.0652 4.94319 41.0137 4.99433 40.9452 4.99433H38.1356C37.8444 4.99433 37.5531 5.11364 37.3817 5.33523C37.279 5.4716 37.2276 5.62501 37.2276 5.79546V7.90909C37.2276 7.97729 37.279 8.02842 37.3476 8.02842H48.1748C48.2434 8.02842 48.2948 8.07956 48.2948 8.14774V22.3296C48.2948 22.3977 48.2434 22.4489 48.1748 22.4489H44.029C43.9604 22.4489 43.909 22.3977 43.909 22.3296V11.7273C43.909 11.6591 43.8576 11.608 43.789 11.608H37.536C37.4674 11.608 37.416 11.6591 37.416 11.7273V22.3296C37.416 22.3977 37.3645 22.4489 37.2961 22.4489H33.1501C33.0816 22.4489 33.0303 22.3807 33.0303 22.3296ZM75.7573 8.04549H79.218C79.3037 8.04549 79.3892 8.11367 79.3892 8.21594V11.4205C79.3892 11.5057 79.3206 11.5909 79.218 11.5909H75.7573V22.2614C75.7573 22.3466 75.6888 22.4318 75.5859 22.4318H71.5086C71.4229 22.4318 71.3372 22.3637 71.3372 22.2614V11.5909H68.4591C68.3734 11.5909 68.2878 11.5228 68.2878 11.4205V8.21594C68.2878 8.13071 68.3562 8.04549 68.4591 8.04549H71.3372V3.34094C71.3372 3.25571 71.4058 3.17049 71.5086 3.17049H75.5859C75.6716 3.17049 75.7573 3.23867 75.7573 3.34094V8.04549ZM53 22.642C53 22.7274 53.0686 22.8126 53.1713 22.8126H57.2144C57.3001 22.8126 57.3857 22.7443 57.3857 22.642V14.5966C57.3857 14.0853 57.5228 13.625 57.7626 13.1989C58.0196 12.7727 58.3451 12.4318 58.7734 12.1762C59.2018 11.9205 59.6814 11.8012 60.2297 11.8012C60.7607 11.8012 61.2404 11.9205 61.6686 12.1762C62.097 12.4318 62.4397 12.7727 62.6795 13.1989C62.9365 13.625 63.0563 14.0853 63.0563 14.5966V22.625C63.0563 22.7102 63.1249 22.7954 63.2278 22.7954H67.2707C67.3565 22.7954 67.4422 22.7274 67.4422 22.625V14.4773C67.4422 13.2671 67.1509 12.1762 66.5855 11.2046C66.0202 10.233 65.1978 9.44888 64.1357 8.86935C63.0735 8.2898 61.7715 8.00002 60.2639 8.00002C58.7734 8.00002 57.4714 8.2898 56.3921 8.86935C55.2956 9.44888 54.4561 10.233 53.8738 11.2046C53.2913 12.1762 53 13.2671 53 14.4773V22.642ZM87.4925 22.4489C86.0362 22.4489 84.7171 22.1251 83.5522 21.4772C82.3872 20.8296 81.4622 19.9603 80.7939 18.8352C80.1259 17.7103 79.7832 16.4489 79.7832 15.0511C79.7832 13.6363 80.1259 12.375 80.7939 11.267C81.4622 10.1591 82.3872 9.27271 83.5522 8.62499C84.7171 7.97726 86.0192 7.6534 87.4925 7.6534C88.9488 7.6534 90.2508 7.97726 91.4156 8.62499C92.5635 9.27271 93.4887 10.1591 94.1568 11.267C94.825 12.375 95.1675 13.6363 95.1675 15.0511C95.1675 16.4489 94.825 17.7103 94.1568 18.8352C93.4887 19.9603 92.5635 20.8465 91.3985 21.4772C90.2336 22.1251 88.9316 22.4489 87.4925 22.4489ZM87.4925 18.7159C88.1777 18.7159 88.7602 18.5455 89.2742 18.2216C89.771 17.8976 90.1651 17.4545 90.4392 16.892C90.7133 16.3466 90.8503 15.7159 90.8503 15.017C90.8503 14.3352 90.7133 13.7216 90.4392 13.1761C90.1651 12.6307 89.771 12.1875 89.2742 11.8466C88.7774 11.5227 88.1777 11.3523 87.4925 11.3523C86.8073 11.3523 86.2077 11.5227 85.7109 11.8466C85.1969 12.1704 84.8028 12.6136 84.5287 13.1761C84.2546 13.7216 84.1176 14.3352 84.1176 15.017C84.1176 15.7159 84.2546 16.3466 84.5287 16.892C84.8028 17.4375 85.1969 17.8807 85.7109 18.2216C86.2077 18.5624 86.8073 18.7159 87.4925 18.7159ZM100.598 21.5455C101.798 22.1932 103.168 22.5172 104.727 22.5172V22.483H106.8C106.886 22.483 106.971 22.4148 106.971 22.3125V18.9034C106.971 18.8182 106.903 18.733 106.8 18.733H104.916C104.162 18.733 103.511 18.5796 102.963 18.2558C102.414 17.9489 102.003 17.5058 101.695 16.9602C101.404 16.4148 101.249 15.8012 101.249 15.1023C101.249 14.4205 101.386 13.7898 101.695 13.2443C102.003 12.6989 102.414 12.2728 102.963 11.9489C103.511 11.625 104.162 11.4716 104.916 11.4716H106.8C106.886 11.4716 106.971 11.4034 106.971 11.3012V7.85797C106.971 7.77275 106.903 7.68752 106.8 7.68752H104.727C103.185 7.68752 101.798 8.02844 100.598 8.67617C99.3992 9.32389 98.4568 10.2102 97.7545 11.3182C97.052 12.4262 96.7095 13.6875 96.7095 15.1193C96.7095 16.5512 97.052 17.8125 97.7545 18.9204C98.4397 20.0284 99.3992 20.8977 100.598 21.5455Z" fill="#0E0946" fill-opacity="0.88"/>
<path d="M14.8877 10.7046C16.361 9.22162 16.361 6.83525 14.9391 5.36935L10.4334 0.835258C9.33697 -0.272697 7.55524 -0.272697 6.4588 0.835258C5.36236 1.94321 5.36236 3.73298 6.4588 4.8239L13.6028 12L14.8877 10.7046Z" fill="#6A8DF9"/>
<path d="M18.8792 9.28981L14.8875 5.30117C16.378 6.80117 16.378 9.20458 14.8875 10.7046L6.44147 19.1932C5.34503 20.3011 5.34503 22.091 6.44147 23.1818C7.53791 24.2897 9.31964 24.2897 10.4161 23.1818L18.862 14.6932C20.3526 13.2103 20.3526 10.7898 18.8792 9.28981Z" fill="#475FF1"/>
<path d="M2.80963 14.7784C4.36135 14.7784 5.61926 13.5192 5.61926 11.9659C5.61926 10.4126 4.36135 9.1534 2.80963 9.1534C1.25791 9.1534 0 10.4126 0 11.9659C0 13.5192 1.25791 14.7784 2.80963 14.7784Z" fill="#475FF1"/>
</g>
<defs>
<clipPath id="clip0">
<rect width="106.971" height="24" fill="white"/>
</clipPath>
</defs>
</svg>
