<svg width="20" height="24" viewBox="0 0 20 24" fill="none" xmlns="http://www.w3.org/2000/svg">
<path d="M14.8877 10.7046C16.361 9.22162 16.361 6.83525 14.9391 5.36935L10.4334 0.835258C9.33697 -0.272697 7.55524 -0.272697 6.4588 0.835258C5.36236 1.94321 5.36236 3.73298 6.4588 4.8239L13.6028 12L14.8877 10.7046Z" fill="#6A8DF9"/>
<path d="M18.8792 9.28981L14.8875 5.30117C16.378 6.80117 16.378 9.20458 14.8875 10.7046L6.44147 19.1932C5.34503 20.3011 5.34503 22.091 6.44147 23.1818C7.53791 24.2897 9.31964 24.2897 10.4161 23.1818L18.862 14.6932C20.3526 13.2103 20.3526 10.7898 18.8792 9.28981Z" fill="#475FF1"/>
<path d="M2.80963 14.7784C4.36135 14.7784 5.61926 13.5192 5.61926 11.9659C5.61926 10.4126 4.36135 9.1534 2.80963 9.1534C1.25791 9.1534 0 10.4126 0 11.9659C0 13.5192 1.25791 14.7784 2.80963 14.7784Z" fill="#475FF1"/>
</svg>
